<svg preserveAspectRatio="none" overflow="visible" style="display: block;" width="21" height="21" viewBox="0 0 21 21" fill="none" xmlns="http://www.w3.org/2000/svg">
<g id="SVG">
<path id="Vector" d="M14 18.375V16.625C14 15.6967 13.6313 14.8065 12.9749 14.1501C12.3185 13.4937 11.4283 13.125 10.5 13.125H5.25C4.32174 13.125 3.4315 13.4937 2.77513 14.1501C2.11875 14.8065 1.75 15.6967 1.75 16.625V18.375" stroke="#D64545" stroke-width="1.75" stroke-linecap="round" stroke-linejoin="round"/>
<path id="Vector_2" d="M7.875 9.625C9.808 9.625 11.375 8.058 11.375 6.125C11.375 4.192 9.808 2.625 7.875 2.625C5.942 2.625 4.375 4.192 4.375 6.125C4.375 8.058 5.942 9.625 7.875 9.625Z" stroke="#D64545" stroke-width="1.75" stroke-linecap="round" stroke-linejoin="round"/>
<path id="Vector_3" d="M14.875 7L19.25 11.375M19.25 7L14.875 11.375" stroke="#D64545" stroke-width="1.75" stroke-linecap="round" stroke-linejoin="round"/>
</g>
</svg>
