<svg width="17" height="17" viewBox="0 0 17 17" fill="none" xmlns="http://www.w3.org/2000/svg">
<g clip-path="url(#clip0_930_9382)">
<path d="M14.875 1.41797V5.66797H10.625" stroke="#6A4FC0" stroke-width="1.4875" stroke-linecap="round" stroke-linejoin="round"/>
<path d="M2.125 8.4981C2.12612 7.26795 2.48313 6.0644 3.15297 5.03261C3.82281 4.00082 4.77687 3.18487 5.90007 2.68317C7.02327 2.18148 8.26763 2.01547 9.48307 2.20516C10.6985 2.39486 11.8331 2.93217 12.75 3.75227L14.875 5.66477" stroke="#6A4FC0" stroke-width="1.4875" stroke-linecap="round" stroke-linejoin="round"/>
<path d="M2.125 15.582V11.332H6.375" stroke="#6A4FC0" stroke-width="1.4875" stroke-linecap="round" stroke-linejoin="round"/>
<path d="M14.875 8.5C14.8739 9.73015 14.5169 10.9337 13.847 11.9655C13.1772 12.9973 12.2231 13.8132 11.0999 14.3149C9.97673 14.8166 8.73237 14.9826 7.51693 14.7929C6.30149 14.6032 5.1669 14.0659 4.25 13.2458L2.125 11.3333" stroke="#6A4FC0" stroke-width="1.4875" stroke-linecap="round" stroke-linejoin="round"/>
</g>
<defs>
<clipPath id="clip0_930_9382">
<rect width="17" height="17" fill="white"/>
</clipPath>
</defs>
</svg>
