<svg width="19" height="19" viewBox="0 0 19 19" fill="none" xmlns="http://www.w3.org/2000/svg">
<path d="M9.50016 17.4154C13.8724 17.4154 17.4168 13.871 17.4168 9.4987C17.4168 5.12644 13.8724 1.58203 9.50016 1.58203C5.12791 1.58203 1.5835 5.12644 1.5835 9.4987C1.5835 13.871 5.12791 17.4154 9.50016 17.4154Z" stroke="#0E7C7B" stroke-width="1.50417" stroke-linecap="round" stroke-linejoin="round"/>
<path d="M7.2041 7.12583C7.40103 6.61254 7.76994 6.18347 8.24789 5.9118C8.72585 5.64013 9.28326 5.54269 9.82503 5.6361C10.3668 5.72951 10.8594 6.00798 11.2188 6.42402C11.5782 6.84006 11.7821 7.3679 11.7958 7.9175C11.7958 9.50083 9.42077 10.2925 9.42077 10.2925" stroke="#0E7C7B" stroke-width="1.50417" stroke-linecap="round" stroke-linejoin="round"/>
<path d="M9.5 13.457H9.50792" stroke="#0E7C7B" stroke-width="1.50417" stroke-linecap="round" stroke-linejoin="round"/>
</svg>
